
<svg width="69" height="66" viewBox="0 0 69 66" fill="none" xmlns="http://www.w3.org/2000/svg"><path d="M13.207 7.782c0 1.816-1.48 3.29-3.305 3.29h-5.37v-6.58h5.37a3.297 3.297 0 0 1 3.306 3.29zm4.713.022v-.009C17.92 3.49 14.414 0 10.09 0H0v22.151h4.533v-6.55h5.557c4.325 0 7.83-3.491 7.83-7.797zm11.894 41.073h16.39V44.38H34.332v-3.647a27.78 27.78 0 0 0 5.276-1.366l2.208-.8-1.606-4.396-2.208.799a24.39 24.39 0 0 1-3.67 1.029v-4.805h11.87v-4.498H29.814v9.57c-2.76-.262-4.696-1.344-6-2.483-2.302-2.01-4.699-6.048-3.032-13.867l.487-2.288-4.597-.972-.487 2.288c-1.692 7.944-.125 14.291 4.532 18.356 1.914 1.67 4.177 2.778 6.704 3.313.774.163 1.573.27 2.394.325v7.94zm34.713 5.593a8.76 8.76 0 0 1-.436 2.808c-.29.864-.707 1.608-1.251 2.232a5.775 5.775 0 0 1-1.968 1.465c-.769.354-1.63.53-2.585.53-.956 0-1.82-.178-2.593-.53a5.75 5.75 0 0 1-1.978-1.465c-.544-.623-.96-1.367-1.251-2.232a8.768 8.768 0 0 1-.435-2.808c0-1.008.145-1.945.435-2.808.29-.863.707-1.61 1.251-2.24a5.71 5.71 0 0 1 1.978-1.476c.773-.353 1.638-.53 2.593-.53.956 0 1.816.177 2.585.53a5.73 5.73 0 0 1 1.968 1.475c.544.63.96 1.378 1.251 2.241.29.863.436 1.799.436 2.808zm4.473.005c0-1.652-.248-3.185-.747-4.6-.498-1.414-1.214-2.638-2.147-3.671a9.828 9.828 0 0 0-3.378-2.417c-1.317-.578-2.796-.867-4.435-.867-1.64 0-3.123.289-4.45.867a9.774 9.774 0 0 0-3.394 2.417c-.933 1.033-1.65 2.257-2.147 3.67-.498 1.416-.747 2.949-.747 4.601 0 1.652.248 3.186.747 4.601.498 1.416 1.214 2.633 2.147 3.655a9.863 9.863 0 0 0 3.393 2.402c1.328.577 2.812.867 4.451.867 1.639 0 3.118-.29 4.435-.867a9.92 9.92 0 0 0 3.378-2.402c.933-1.022 1.649-2.24 2.147-3.655.499-1.414.747-2.948.747-4.601z" fill="#000"/></svg>